<svg xmlns="http://www.w3.org/2000/svg" xmlns:xlink="http://www.w3.org/1999/xlink" width="324" zoomAndPan="magnify" viewBox="0 0 242.87999 56.249996" height="75" preserveAspectRatio="xMidYMid meet" version="1.2"><defs/><g id="7d37962d10"><g style="fill:#5925dc;fill-opacity:1;"><g transform="translate(2.007254, 39.147292)"><path style="stroke:none" d="M 24.671875 -5.125 L 24.671875 0 L 3.28125 0 L 3.28125 -27.625 L 24.15625 -27.625 L 24.15625 -22.5 L 9.625 -22.5 L 9.625 -16.5 L 22.453125 -16.5 L 22.453125 -11.53125 L 9.625 -11.53125 L 9.625 -5.125 Z M 24.671875 -5.125 "/></g></g><g style="fill:#5925dc;fill-opacity:1;"><g transform="translate(32.044118, 39.147292)"><path style="stroke:none" d="M 29.84375 -27.625 L 17.875 0 L 11.5625 0 L -0.359375 -27.625 L 6.546875 -27.625 L 14.953125 -7.890625 L 23.484375 -27.625 Z M 29.84375 -27.625 "/></g></g><g style="fill:#5925dc;fill-opacity:1;"><g transform="translate(64.843849, 39.147292)"><path style="stroke:none" d="M 24.671875 -5.125 L 24.671875 0 L 3.28125 0 L 3.28125 -27.625 L 24.15625 -27.625 L 24.15625 -22.5 L 9.625 -22.5 L 9.625 -16.5 L 22.453125 -16.5 L 22.453125 -11.53125 L 9.625 -11.53125 L 9.625 -5.125 Z M 24.671875 -5.125 "/></g></g><g style="fill:#5925dc;fill-opacity:1;"><g transform="translate(95.275421, 39.147292)"><path style="stroke:none" d="M 28.609375 -27.625 L 28.609375 0 L 23.359375 0 L 9.59375 -16.78125 L 9.59375 0 L 3.28125 0 L 3.28125 -27.625 L 8.5625 -27.625 L 22.296875 -10.859375 L 22.296875 -27.625 Z M 28.609375 -27.625 "/></g></g><g style="fill:#5925dc;fill-opacity:1;"><g transform="translate(131.114349, 39.147292)"><path style="stroke:none" d="M 9 -22.421875 L 0.15625 -22.421875 L 0.15625 -27.625 L 24.234375 -27.625 L 24.234375 -22.421875 L 15.390625 -22.421875 L 15.390625 0 L 9 0 Z M 9 -22.421875 "/></g></g><g style="fill:#5925dc;fill-opacity:1;"><g transform="translate(159.454024, 39.147292)"><path style="stroke:none" d="M 3.28125 -27.625 L 9.671875 -27.625 L 9.671875 0 L 3.28125 0 Z M 3.28125 -27.625 "/></g></g><g style="fill:#5925dc;fill-opacity:1;"><g transform="translate(176.347467, 39.147292)"><path style="stroke:none" d="M 20.875 0 L 15.546875 -7.703125 L 9.671875 -7.703125 L 9.671875 0 L 3.28125 0 L 3.28125 -27.625 L 15.234375 -27.625 C 17.679688 -27.625 19.804688 -27.21875 21.609375 -26.40625 C 23.410156 -25.59375 24.796875 -24.4375 25.765625 -22.9375 C 26.742188 -21.4375 27.234375 -19.660156 27.234375 -17.609375 C 27.234375 -15.554688 26.738281 -13.785156 25.75 -12.296875 C 24.757812 -10.804688 23.359375 -9.664062 21.546875 -8.875 L 27.75 0 Z M 20.765625 -17.609375 C 20.765625 -19.160156 20.265625 -20.347656 19.265625 -21.171875 C 18.265625 -22.003906 16.800781 -22.421875 14.875 -22.421875 L 9.671875 -22.421875 L 9.671875 -12.78125 L 14.875 -12.78125 C 16.800781 -12.78125 18.265625 -13.203125 19.265625 -14.046875 C 20.265625 -14.890625 20.765625 -16.078125 20.765625 -17.609375 Z M 20.765625 -17.609375 "/></g></g><g style="fill:#5925dc;fill-opacity:1;"><g transform="translate(239.674726, 13.195148)"><path style="stroke:none" d="M -29.84375 27.625 L -17.875 0 L -11.5625 0 L 0.359375 27.625 L -6.546875 27.625 L -14.953125 7.890625 L -23.484375 27.625 Z M -29.84375 27.625 "/></g></g></g></svg>